<?xml version="1.0" encoding="UTF-8" standalone="no"?>
<!DOCTYPE svg PUBLIC "-//W3C//DTD SVG 1.1//EN" "http://www.w3.org/Graphics/SVG/1.1/DTD/svg11.dtd">
<svg xmlns="http://www.w3.org/2000/svg" version="1.1" viewBox="0.00 0.00 1024.00 1024.00">
<g stroke-width="2.00" fill="none" stroke-linecap="butt">
<path stroke="#7e939b" vector-effect="non-scaling-stroke" d="
  M 758.91 205.53
  C 700.25 158.94 629.78 130.67 555.50 122.27
  C 489.23 114.79 423.35 123.73 361.26 148.07
  C 279.82 179.99 212.85 236.01 166.19 310.44
  C 134.98 360.24 116.73 417.10 110.54 473.25
  C 107.19 503.66 108.55 535.10 113.22 565.75
  Q 129.14 670.06 196.33 750.93
  C 266.02 834.81 365.19 886.98 473.77 897.51
  Q 501.22 900.17 528.75 898.48
  Q 632.89 892.10 721.33 838.57
  C 748.59 822.06 773.34 802.11 796.58 779.08
  C 869.27 707.06 908.93 611.77 909.80 509.26
  C 910.23 458.45 899.15 408.21 879.42 361.51
  C 853.62 300.41 810.67 246.64 758.91 205.53"
/>
<path stroke="#5b7d8c" vector-effect="non-scaling-stroke" d="
  M 357.33 326.02
  Q 358.84 337.73 369.75 339.47
  C 374.47 340.22 379.82 338.67 384.57 337.30
  C 407.95 330.57 431.15 323.29 454.52 316.51
  Q 461.07 314.61 465.22 314.91"
/>
<path stroke="#7e939b" vector-effect="non-scaling-stroke" d="
  M 465.22 314.91
  Q 473.88 317.58 476.93 324.43
  Q 478.52 328.00 478.54 338.26
  Q 478.62 371.78 478.47 390.74
  C 478.28 414.75 468.58 438.51 449.98 453.82
  C 439.70 462.28 426.82 468.84 414.96 472.93
  C 379.68 485.12 344.10 487.75 303.09 489.13
  Q 302.50 489.15 302.52 489.73
  L 303.32 511.82"
/>
<path stroke="#5b7d8c" vector-effect="non-scaling-stroke" d="
  M 303.32 511.82
  L 304.08 533.71
  Q 304.10 534.23 304.62 534.23
  Q 334.31 534.05 364.01 534.01
  Q 383.27 533.98 383.99 533.94
  Q 397.76 533.30 410.75 529.43
  Q 432.81 522.87 457.75 513.80
  C 476.15 507.10 491.87 499.31 505.96 485.23
  Q 531.43 459.81 533.35 424.73
  C 533.91 414.57 533.52 396.71 533.46 382.78"
/>
<path stroke="#7e939b" vector-effect="non-scaling-stroke" d="
  M 533.46 382.78
  Q 533.46 358.24 533.31 333.25
  Q 533.23 319.54 546.59 315.21"
/>
<path stroke="#5b7d8c" vector-effect="non-scaling-stroke" d="
  M 546.59 315.21
  Q 550.84 314.71 553.20 315.32
  C 580.11 322.20 606.77 329.92 633.48 337.54
  C 642.92 340.24 650.84 341.76 657.83 335.38
  Q 661.85 331.71 661.35 324.83"
/>
<path stroke="#7e939b" vector-effect="non-scaling-stroke" d="
  M 661.35 324.83
  Q 661.79 319.27 657.57 316.17
  C 611.11 282.04 564.60 247.96 518.86 212.88
  C 513.44 208.72 508.29 206.03 501.90 210.67
  Q 493.52 216.77 485.22 222.98
  Q 426.23 267.13 367.11 311.09
  C 361.93 314.95 356.16 318.34 357.33 326.02"
/>
<path stroke="#cee5ed" vector-effect="non-scaling-stroke" d="
  M 661.35 324.83
  C 660.51 330.12 656.15 329.11 652.33 327.67
  Q 638.13 322.28 631.50 320.31
  Q 589.85 307.94 548.30 295.27
  C 546.25 294.65 543.10 293.31 540.47 292.70
  A 0.67 0.67 0.0 0 0 539.70 293.61
  Q 544.04 304.17 546.59 315.21"
/>
<path stroke="#cee5ed" vector-effect="non-scaling-stroke" d="
  M 533.46 382.78
  L 522.92 381.29
  Q 522.42 381.22 522.14 380.79
  Q 521.84 380.33 521.73 380.33
  Q 520.39 380.39 520.23 381.72
  C 519.44 388.12 518.26 394.19 517.53 400.78
  C 514.46 428.55 503.68 455.52 481.60 473.46
  C 467.51 484.91 449.80 492.06 431.98 497.80
  C 407.14 505.80 383.75 508.68 358.75 509.58
  C 340.30 510.24 321.77 511.57 303.32 511.82"
/>
<path stroke="#cee5ed" vector-effect="non-scaling-stroke" d="
  M 465.22 314.91
  Q 467.80 304.70 472.27 295.26
  Q 472.95 293.82 471.28 293.80
  A 1.07 0.88 -50.5 0 0 470.92 293.87
  C 461.36 297.32 450.39 300.38 441.91 303.02
  C 434.83 305.23 427.52 306.89 420.55 309.39
  Q 417.21 310.59 413.83 311.63
  Q 394.58 317.53 375.51 323.97
  C 370.07 325.81 363.87 330.15 357.33 326.02"
/>
<path stroke="#7e939b" vector-effect="non-scaling-stroke" d="
  M 773.5080 327.9814
  A 25.99 25.54 18.0 0 0 756.6823 295.6600
  A 25.99 25.54 18.0 0 0 724.0720 311.9186
  A 25.99 25.54 18.0 0 0 740.8977 344.2400
  A 25.99 25.54 18.0 0 0 773.5080 327.9814"
/>
<path stroke="#7e939b" vector-effect="non-scaling-stroke" d="
  M 285.55 567.87
  C 280.01 564.66 275.45 561.36 274.98 554.75
  Q 272.17 514.96 269.30 475.18
  C 268.29 461.29 252.01 457.46 245.74 470.22
  Q 202.79 557.75 177.81 610.04
  Q 175.40 615.09 175.01 620.93"
/>
<path stroke="#5b7d8c" vector-effect="non-scaling-stroke" d="
  M 175.01 620.93
  Q 174.66 626.64 175.24 630.25
  Q 175.94 634.52 179.35 638.16
  Q 232.61 695.00 286.58 751.17
  Q 291.94 756.74 298.74 753.75
  Q 305.63 750.72 305.20 742.75"
/>
<path stroke="#7e939b" vector-effect="non-scaling-stroke" d="
  M 305.20 742.75
  Q 303.22 734.46 298.08 715.99
  Q 290.30 688.02 282.48 646.74
  Q 279.94 633.38 292.15 627.37"
/>
<path stroke="#854b52" vector-effect="non-scaling-stroke" d="
  M 292.15 627.37
  Q 301.36 625.28 310.25 623.70
  Q 342.80 617.89 375.19 611.24
  Q 391.78 607.83 394.76 607.12
  Q 410.12 603.46 428.98 596.74
  Q 497.48 572.30 515.69 564.95
  C 526.73 560.50 535.98 556.07 544.25 548.45
  Q 547.52 545.44 554.36 537.16
  C 560.09 530.22 566.99 522.73 571.74 516.46
  C 593.44 487.80 606.18 452.13 606.30 416.00
  Q 606.39 390.04 606.48 364.27
  A 1.36 1.36 0.0 0 0 605.47 362.94
  L 565.50 352.38
  Q 564.96 352.24 564.97 352.79
  Q 565.14 384.90 565.15 417.00
  C 565.18 467.79 534.16 516.88 487.11 536.97
  Q 476.75 541.39 466.15 545.19
  Q 444.87 552.82 423.57 560.41
  C 413.09 564.14 403.74 566.76 395.00 566.77
  Q 340.51 566.86 285.55 567.87"
/>
<path stroke="#f8b3b3" vector-effect="non-scaling-stroke" d="
  M 292.15 627.37
  Q 285.71 597.84 285.55 567.87"
/>
<path stroke="#cee5ed" vector-effect="non-scaling-stroke" d="
  M 305.20 742.75
  Q 303.92 741.47 302.87 739.89
  Q 301.70 738.15 300.53 737.11
  Q 295.75 732.84 286.27 723.73
  C 276.67 714.51 259.96 700.01 247.08 688.05
  Q 219.63 662.57 192.13 637.13
  Q 183.29 628.96 175.01 620.93"
/>
<path stroke="#44758a" vector-effect="non-scaling-stroke" d="
  M 411.87 400.00
  C 411.96 413.83 408.33 431.40 399.06 442.21
  Q 398.22 443.19 399.46 442.84
  C 411.17 439.52 421.87 434.73 430.87 426.37
  C 443.45 414.69 447.07 401.09 447.14 384.25
  Q 447.21 368.60 446.99 352.80
  A 0.43 0.43 0.0 0 0 446.44 352.40
  L 412.26 362.22
  Q 411.74 362.37 411.74 362.91
  Q 411.74 381.46 411.87 400.00"
/>
<path stroke="#7e939b" vector-effect="non-scaling-stroke" d="
  M 330.16 378.54
  A 17.40 17.40 0.0 0 0 312.76 361.14
  A 17.40 17.40 0.0 0 0 295.36 378.54
  A 17.40 17.40 0.0 0 0 312.76 395.94
  A 17.40 17.40 0.0 0 0 330.16 378.54"
/>
<path stroke="#7e939b" vector-effect="non-scaling-stroke" d="
  M 251.41 384.79
  A 22.81 22.81 0.0 0 0 228.60 361.98
  A 22.81 22.81 0.0 0 0 205.79 384.79
  A 22.81 22.81 0.0 0 0 228.60 407.60
  A 22.81 22.81 0.0 0 0 251.41 384.79"
/>
<path stroke="#7e939b" vector-effect="non-scaling-stroke" d="
  M 808.7426 386.4822
  A 11.61 11.40 48.7 0 0 809.6444 370.2360
  A 11.61 11.40 48.7 0 0 793.4174 369.0378
  A 11.61 11.40 48.7 0 0 792.5156 385.2840
  A 11.61 11.40 48.7 0 0 808.7426 386.4822"
/>
<path stroke="#763f48" vector-effect="non-scaling-stroke" d="
  M 378.94 644.19
  L 316.82 655.92
  Q 316.22 656.04 316.34 656.63
  L 322.33 688.28
  Q 322.41 688.69 322.83 688.73
  Q 360.58 692.50 398.10 687.37"
/>
<path stroke="#7e939b" vector-effect="non-scaling-stroke" d="
  M 398.10 687.37
  Q 410.61 685.00 416.51 683.21
  Q 424.32 680.85 439.05 675.03
  C 487.65 655.85 536.06 636.14 584.77 617.23
  C 597.45 612.30 609.49 610.88 622.51 612.81
  Q 642.12 615.73 705.51 626.67
  C 713.07 627.97 719.50 633.59 720.58 641.27
  Q 720.99 644.21 719.70 649.90
  Q 709.30 695.70 696.99 741.19"
/>
<path stroke="#5b7d8c" vector-effect="non-scaling-stroke" d="
  M 696.99 741.19
  Q 696.60 747.18 699.55 750.99
  C 705.59 758.77 714.47 755.46 720.36 749.61
  C 757.61 712.62 794.60 675.37 832.05 638.58
  C 837.18 633.55 836.76 626.54 835.36 619.78"
/>
<path stroke="#7e939b" vector-effect="non-scaling-stroke" d="
  M 835.36 619.78
  C 834.79 618.01 834.35 616.06 833.59 614.40
  C 812.64 568.36 791.21 522.57 770.67 476.34
  Q 768.17 470.72 765.20 468.80
  C 760.11 465.50 753.12 466.83 750.37 472.28
  Q 749.47 474.07 748.70 479.37
  Q 743.22 517.20 738.00 555.07
  Q 737.32 560.00 736.18 562.22
  C 732.71 568.99 724.87 571.99 717.52 570.83
  Q 682.31 565.26 646.97 560.52
  Q 622.16 557.19 598.81 565.90
  Q 581.65 572.29 564.69 579.18
  Q 495.33 607.36 424.96 632.90
  C 408.31 638.94 396.72 641.61 378.94 644.19"
/>
<path stroke="#cee5ed" vector-effect="non-scaling-stroke" d="
  M 835.36 619.78
  C 833.51 623.93 830.44 625.33 827.58 627.82
  C 785.68 664.36 743.62 700.70 701.98 737.55
  Q 701.68 737.81 699.88 739.79
  Q 698.40 741.41 696.99 741.19"
/>
<path stroke="#e8a7a9" vector-effect="non-scaling-stroke" d="
  M 398.10 687.37
  Q 389.12 670.10 381.87 652.42
  Q 380.27 648.52 378.94 644.19"
/>
<path stroke="#854b52" vector-effect="non-scaling-stroke" d="
  M 648.56 526.33
  Q 657.17 526.82 664.25 528.06
  Q 685.37 531.77 706.10 535.25"
/>
<path stroke="#763f48" vector-effect="non-scaling-stroke" d="
  M 706.10 535.25
  L 708.67 535.88
  Q 709.14 536.00 709.24 535.46
  L 717.23 493.54
  Q 717.35 492.93 716.85 492.56
  Q 716.23 492.11 715.03 491.82"
/>
<path stroke="#854b52" vector-effect="non-scaling-stroke" d="
  M 715.03 491.82
  Q 687.94 481.72 658.95 479.07"
/>
<path stroke="#763f48" vector-effect="non-scaling-stroke" d="
  M 658.95 479.07
  Q 641.29 477.81 624.55 480.15
  A 1.25 1.23 -85.9 0 0 623.53 481.05
  C 618.86 498.13 610.51 517.90 598.36 531.14
  A 0.54 0.54 0.0 0 0 598.70 532.04
  Q 599.03 532.07 599.48 531.91
  C 615.73 526.06 631.46 525.28 648.56 526.33"
/>
<path stroke="#f05f60" vector-effect="non-scaling-stroke" d="
  M 658.95 479.07
  Q 654.21 494.95 652.85 500.76
  Q 650.54 510.55 648.56 526.33"
/>
<path stroke="#f05f60" vector-effect="non-scaling-stroke" d="
  M 715.03 491.82
  Q 715.08 493.26 715.00 494.53
  Q 714.93 495.75 714.36 497.13
  Q 709.99 507.72 707.84 518.95
  Q 707.82 519.06 706.20 525.41
  Q 704.95 530.35 706.10 535.25"
/>
<path stroke="#44758a" vector-effect="non-scaling-stroke" d="
  M 686.61 657.48
  C 664.57 653.31 642.35 649.15 620.12 645.96
  Q 606.85 644.05 596.74 648.26
  C 553.57 666.24 509.97 683.22 466.45 700.32
  Q 440.46 710.54 433.68 712.91
  C 403.37 723.48 368.09 726.04 336.59 722.51
  C 335.17 722.35 333.92 722.01 332.46 721.59
  Q 331.57 721.34 332.23 721.99
  Q 338.35 728.10 345.05 732.23
  C 378.45 752.82 419.85 759.23 458.07 749.65
  C 473.34 745.82 487.07 740.50 502.92 733.81
  Q 530.99 721.95 559.14 710.29
  C 594.66 695.57 638.81 684.61 674.92 705.12
  A 0.37 0.37 0.0 0 0 675.47 704.89
  L 687.30 658.55
  Q 687.53 657.65 686.61 657.48"
/>
<path stroke="#44758a" vector-effect="non-scaling-stroke" d="
  M 531.6218 814.3117
  A 14.73 14.43 54.7 0 0 534.8869 793.9515
  A 14.73 14.43 54.7 0 0 514.5982 790.2683
  A 14.73 14.43 54.7 0 0 511.3331 810.6285
  A 14.73 14.43 54.7 0 0 531.6218 814.3117"
/>
</g>
<path fill="#f0fafc" d="
  M 0.00 0.00
  L 1024.00 0.00
  L 1024.00 1024.00
  L 0.00 1024.00
  L 0.00 0.00
  Z
  M 758.91 205.53
  C 700.25 158.94 629.78 130.67 555.50 122.27
  C 489.23 114.79 423.35 123.73 361.26 148.07
  C 279.82 179.99 212.85 236.01 166.19 310.44
  C 134.98 360.24 116.73 417.10 110.54 473.25
  C 107.19 503.66 108.55 535.10 113.22 565.75
  Q 129.14 670.06 196.33 750.93
  C 266.02 834.81 365.19 886.98 473.77 897.51
  Q 501.22 900.17 528.75 898.48
  Q 632.89 892.10 721.33 838.57
  C 748.59 822.06 773.34 802.11 796.58 779.08
  C 869.27 707.06 908.93 611.77 909.80 509.26
  C 910.23 458.45 899.15 408.21 879.42 361.51
  C 853.62 300.41 810.67 246.64 758.91 205.53
  Z"
/>
<path fill="#0b2b3a" d="
  M 555.50 122.27
  C 629.78 130.67 700.25 158.94 758.91 205.53
  C 810.67 246.64 853.62 300.41 879.42 361.51
  C 899.15 408.21 910.23 458.45 909.80 509.26
  C 908.93 611.77 869.27 707.06 796.58 779.08
  C 773.34 802.11 748.59 822.06 721.33 838.57
  Q 632.89 892.10 528.75 898.48
  Q 501.22 900.17 473.77 897.51
  C 365.19 886.98 266.02 834.81 196.33 750.93
  Q 129.14 670.06 113.22 565.75
  C 108.55 535.10 107.19 503.66 110.54 473.25
  C 116.73 417.10 134.98 360.24 166.19 310.44
  C 212.85 236.01 279.82 179.99 361.26 148.07
  C 423.35 123.73 489.23 114.79 555.50 122.27
  Z
  M 357.33 326.02
  Q 358.84 337.73 369.75 339.47
  C 374.47 340.22 379.82 338.67 384.57 337.30
  C 407.95 330.57 431.15 323.29 454.52 316.51
  Q 461.07 314.61 465.22 314.91
  Q 473.88 317.58 476.93 324.43
  Q 478.52 328.00 478.54 338.26
  Q 478.62 371.78 478.47 390.74
  C 478.28 414.75 468.58 438.51 449.98 453.82
  C 439.70 462.28 426.82 468.84 414.96 472.93
  C 379.68 485.12 344.10 487.75 303.09 489.13
  Q 302.50 489.15 302.52 489.73
  L 303.32 511.82
  L 304.08 533.71
  Q 304.10 534.23 304.62 534.23
  Q 334.31 534.05 364.01 534.01
  Q 383.27 533.98 383.99 533.94
  Q 397.76 533.30 410.75 529.43
  Q 432.81 522.87 457.75 513.80
  C 476.15 507.10 491.87 499.31 505.96 485.23
  Q 531.43 459.81 533.35 424.73
  C 533.91 414.57 533.52 396.71 533.46 382.78
  Q 533.46 358.24 533.31 333.25
  Q 533.23 319.54 546.59 315.21
  Q 550.84 314.71 553.20 315.32
  C 580.11 322.20 606.77 329.92 633.48 337.54
  C 642.92 340.24 650.84 341.76 657.83 335.38
  Q 661.85 331.71 661.35 324.83
  Q 661.79 319.27 657.57 316.17
  C 611.11 282.04 564.60 247.96 518.86 212.88
  C 513.44 208.72 508.29 206.03 501.90 210.67
  Q 493.52 216.77 485.22 222.98
  Q 426.23 267.13 367.11 311.09
  C 361.93 314.95 356.16 318.34 357.33 326.02
  Z
  M 773.5080 327.9814
  A 25.99 25.54 18.0 0 0 756.6823 295.6600
  A 25.99 25.54 18.0 0 0 724.0720 311.9186
  A 25.99 25.54 18.0 0 0 740.8977 344.2400
  A 25.99 25.54 18.0 0 0 773.5080 327.9814
  Z
  M 285.55 567.87
  C 280.01 564.66 275.45 561.36 274.98 554.75
  Q 272.17 514.96 269.30 475.18
  C 268.29 461.29 252.01 457.46 245.74 470.22
  Q 202.79 557.75 177.81 610.04
  Q 175.40 615.09 175.01 620.93
  Q 174.66 626.64 175.24 630.25
  Q 175.94 634.52 179.35 638.16
  Q 232.61 695.00 286.58 751.17
  Q 291.94 756.74 298.74 753.75
  Q 305.63 750.72 305.20 742.75
  Q 303.22 734.46 298.08 715.99
  Q 290.30 688.02 282.48 646.74
  Q 279.94 633.38 292.15 627.37
  Q 301.36 625.28 310.25 623.70
  Q 342.80 617.89 375.19 611.24
  Q 391.78 607.83 394.76 607.12
  Q 410.12 603.46 428.98 596.74
  Q 497.48 572.30 515.69 564.95
  C 526.73 560.50 535.98 556.07 544.25 548.45
  Q 547.52 545.44 554.36 537.16
  C 560.09 530.22 566.99 522.73 571.74 516.46
  C 593.44 487.80 606.18 452.13 606.30 416.00
  Q 606.39 390.04 606.48 364.27
  A 1.36 1.36 0.0 0 0 605.47 362.94
  L 565.50 352.38
  Q 564.96 352.24 564.97 352.79
  Q 565.14 384.90 565.15 417.00
  C 565.18 467.79 534.16 516.88 487.11 536.97
  Q 476.75 541.39 466.15 545.19
  Q 444.87 552.82 423.57 560.41
  C 413.09 564.14 403.74 566.76 395.00 566.77
  Q 340.51 566.86 285.55 567.87
  Z
  M 411.87 400.00
  C 411.96 413.83 408.33 431.40 399.06 442.21
  Q 398.22 443.19 399.46 442.84
  C 411.17 439.52 421.87 434.73 430.87 426.37
  C 443.45 414.69 447.07 401.09 447.14 384.25
  Q 447.21 368.60 446.99 352.80
  A 0.43 0.43 0.0 0 0 446.44 352.40
  L 412.26 362.22
  Q 411.74 362.37 411.74 362.91
  Q 411.74 381.46 411.87 400.00
  Z
  M 330.16 378.54
  A 17.40 17.40 0.0 0 0 312.76 361.14
  A 17.40 17.40 0.0 0 0 295.36 378.54
  A 17.40 17.40 0.0 0 0 312.76 395.94
  A 17.40 17.40 0.0 0 0 330.16 378.54
  Z
  M 251.41 384.79
  A 22.81 22.81 0.0 0 0 228.60 361.98
  A 22.81 22.81 0.0 0 0 205.79 384.79
  A 22.81 22.81 0.0 0 0 228.60 407.60
  A 22.81 22.81 0.0 0 0 251.41 384.79
  Z
  M 808.7426 386.4822
  A 11.61 11.40 48.7 0 0 809.6444 370.2360
  A 11.61 11.40 48.7 0 0 793.4174 369.0378
  A 11.61 11.40 48.7 0 0 792.5156 385.2840
  A 11.61 11.40 48.7 0 0 808.7426 386.4822
  Z
  M 378.94 644.19
  L 316.82 655.92
  Q 316.22 656.04 316.34 656.63
  L 322.33 688.28
  Q 322.41 688.69 322.83 688.73
  Q 360.58 692.50 398.10 687.37
  Q 410.61 685.00 416.51 683.21
  Q 424.32 680.85 439.05 675.03
  C 487.65 655.85 536.06 636.14 584.77 617.23
  C 597.45 612.30 609.49 610.88 622.51 612.81
  Q 642.12 615.73 705.51 626.67
  C 713.07 627.97 719.50 633.59 720.58 641.27
  Q 720.99 644.21 719.70 649.90
  Q 709.30 695.70 696.99 741.19
  Q 696.60 747.18 699.55 750.99
  C 705.59 758.77 714.47 755.46 720.36 749.61
  C 757.61 712.62 794.60 675.37 832.05 638.58
  C 837.18 633.55 836.76 626.54 835.36 619.78
  C 834.79 618.01 834.35 616.06 833.59 614.40
  C 812.64 568.36 791.21 522.57 770.67 476.34
  Q 768.17 470.72 765.20 468.80
  C 760.11 465.50 753.12 466.83 750.37 472.28
  Q 749.47 474.07 748.70 479.37
  Q 743.22 517.20 738.00 555.07
  Q 737.32 560.00 736.18 562.22
  C 732.71 568.99 724.87 571.99 717.52 570.83
  Q 682.31 565.26 646.97 560.52
  Q 622.16 557.19 598.81 565.90
  Q 581.65 572.29 564.69 579.18
  Q 495.33 607.36 424.96 632.90
  C 408.31 638.94 396.72 641.61 378.94 644.19
  Z
  M 648.56 526.33
  Q 657.17 526.82 664.25 528.06
  Q 685.37 531.77 706.10 535.25
  L 708.67 535.88
  Q 709.14 536.00 709.24 535.46
  L 717.23 493.54
  Q 717.35 492.93 716.85 492.56
  Q 716.23 492.11 715.03 491.82
  Q 687.94 481.72 658.95 479.07
  Q 641.29 477.81 624.55 480.15
  A 1.25 1.23 -85.9 0 0 623.53 481.05
  C 618.86 498.13 610.51 517.90 598.36 531.14
  A 0.54 0.54 0.0 0 0 598.70 532.04
  Q 599.03 532.07 599.48 531.91
  C 615.73 526.06 631.46 525.28 648.56 526.33
  Z
  M 686.61 657.48
  C 664.57 653.31 642.35 649.15 620.12 645.96
  Q 606.85 644.05 596.74 648.26
  C 553.57 666.24 509.97 683.22 466.45 700.32
  Q 440.46 710.54 433.68 712.91
  C 403.37 723.48 368.09 726.04 336.59 722.51
  C 335.17 722.35 333.92 722.01 332.46 721.59
  Q 331.57 721.34 332.23 721.99
  Q 338.35 728.10 345.05 732.23
  C 378.45 752.82 419.85 759.23 458.07 749.65
  C 473.34 745.82 487.07 740.50 502.92 733.81
  Q 530.99 721.95 559.14 710.29
  C 594.66 695.57 638.81 684.61 674.92 705.12
  A 0.37 0.37 0.0 0 0 675.47 704.89
  L 687.30 658.55
  Q 687.53 657.65 686.61 657.48
  Z
  M 531.6218 814.3117
  A 14.73 14.43 54.7 0 0 534.8869 793.9515
  A 14.73 14.43 54.7 0 0 514.5982 790.2683
  A 14.73 14.43 54.7 0 0 511.3331 810.6285
  A 14.73 14.43 54.7 0 0 531.6218 814.3117
  Z"
/>
<path fill="#f0fafc" d="
  M 661.35 324.83
  C 660.51 330.12 656.15 329.11 652.33 327.67
  Q 638.13 322.28 631.50 320.31
  Q 589.85 307.94 548.30 295.27
  C 546.25 294.65 543.10 293.31 540.47 292.70
  A 0.67 0.67 0.0 0 0 539.70 293.61
  Q 544.04 304.17 546.59 315.21
  Q 533.23 319.54 533.31 333.25
  Q 533.46 358.24 533.46 382.78
  L 522.92 381.29
  Q 522.42 381.22 522.14 380.79
  Q 521.84 380.33 521.73 380.33
  Q 520.39 380.39 520.23 381.72
  C 519.44 388.12 518.26 394.19 517.53 400.78
  C 514.46 428.55 503.68 455.52 481.60 473.46
  C 467.51 484.91 449.80 492.06 431.98 497.80
  C 407.14 505.80 383.75 508.68 358.75 509.58
  C 340.30 510.24 321.77 511.57 303.32 511.82
  L 302.52 489.73
  Q 302.50 489.15 303.09 489.13
  C 344.10 487.75 379.68 485.12 414.96 472.93
  C 426.82 468.84 439.70 462.28 449.98 453.82
  C 468.58 438.51 478.28 414.75 478.47 390.74
  Q 478.62 371.78 478.54 338.26
  Q 478.52 328.00 476.93 324.43
  Q 473.88 317.58 465.22 314.91
  Q 467.80 304.70 472.27 295.26
  Q 472.95 293.82 471.28 293.80
  A 1.07 0.88 -50.5 0 0 470.92 293.87
  C 461.36 297.32 450.39 300.38 441.91 303.02
  C 434.83 305.23 427.52 306.89 420.55 309.39
  Q 417.21 310.59 413.83 311.63
  Q 394.58 317.53 375.51 323.97
  C 370.07 325.81 363.87 330.15 357.33 326.02
  C 356.16 318.34 361.93 314.95 367.11 311.09
  Q 426.23 267.13 485.22 222.98
  Q 493.52 216.77 501.90 210.67
  C 508.29 206.03 513.44 208.72 518.86 212.88
  C 564.60 247.96 611.11 282.04 657.57 316.17
  Q 661.79 319.27 661.35 324.83
  Z"
/>
<path fill="#abcfdd" d="
  M 661.35 324.83
  Q 661.85 331.71 657.83 335.38
  C 650.84 341.76 642.92 340.24 633.48 337.54
  C 606.77 329.92 580.11 322.20 553.20 315.32
  Q 550.84 314.71 546.59 315.21
  Q 544.04 304.17 539.70 293.61
  A 0.67 0.67 0.0 0 1 540.47 292.70
  C 543.10 293.31 546.25 294.65 548.30 295.27
  Q 589.85 307.94 631.50 320.31
  Q 638.13 322.28 652.33 327.67
  C 656.15 329.11 660.51 330.12 661.35 324.83
  Z"
/>
<path fill="#abcfdd" d="
  M 465.22 314.91
  Q 461.07 314.61 454.52 316.51
  C 431.15 323.29 407.95 330.57 384.57 337.30
  C 379.82 338.67 374.47 340.22 369.75 339.47
  Q 358.84 337.73 357.33 326.02
  C 363.87 330.15 370.07 325.81 375.51 323.97
  Q 394.58 317.53 413.83 311.63
  Q 417.21 310.59 420.55 309.39
  C 427.52 306.89 434.83 305.23 441.91 303.02
  C 450.39 300.38 461.36 297.32 470.92 293.87
  A 1.07 0.88 -50.5 0 1 471.28 293.80
  Q 472.95 293.82 472.27 295.26
  Q 467.80 304.70 465.22 314.91
  Z"
/>
<ellipse fill="#f0fafc" cx="0.00" cy="0.00" transform="translate(748.79,319.95) rotate(18.0)" rx="25.99" ry="25.54"/>
<path fill="#ff6b6a" d="
  M 292.15 627.37
  Q 285.71 597.84 285.55 567.87
  Q 340.51 566.86 395.00 566.77
  C 403.74 566.76 413.09 564.14 423.57 560.41
  Q 444.87 552.82 466.15 545.19
  Q 476.75 541.39 487.11 536.97
  C 534.16 516.88 565.18 467.79 565.15 417.00
  Q 565.14 384.90 564.97 352.79
  Q 564.96 352.24 565.50 352.38
  L 605.47 362.94
  A 1.36 1.36 0.0 0 1 606.48 364.27
  Q 606.39 390.04 606.30 416.00
  C 606.18 452.13 593.44 487.80 571.74 516.46
  C 566.99 522.73 560.09 530.22 554.36 537.16
  Q 547.52 545.44 544.25 548.45
  C 535.98 556.07 526.73 560.50 515.69 564.95
  Q 497.48 572.30 428.98 596.74
  Q 410.12 603.46 394.76 607.12
  Q 391.78 607.83 375.19 611.24
  Q 342.80 617.89 310.25 623.70
  Q 301.36 625.28 292.15 627.37
  Z"
/>
<path fill="#7dbfd9" d="
  M 399.06 442.21
  C 408.33 431.40 411.96 413.83 411.87 400.00
  Q 411.74 381.46 411.74 362.91
  Q 411.74 362.37 412.26 362.22
  L 446.44 352.40
  A 0.43 0.43 0.0 0 1 446.99 352.80
  Q 447.21 368.60 447.14 384.25
  C 447.07 401.09 443.45 414.69 430.87 426.37
  C 421.87 434.73 411.17 439.52 399.46 442.84
  Q 398.22 443.19 399.06 442.21
  Z"
/>
<circle fill="#f0fafc" cx="312.76" cy="378.54" r="17.40"/>
<circle fill="#f0fafc" cx="228.60" cy="384.79" r="22.81"/>
<ellipse fill="#f0fafc" cx="0.00" cy="0.00" transform="translate(801.08,377.76) rotate(48.7)" rx="11.61" ry="11.40"/>
<path fill="#abcfdd" d="
  M 533.46 382.78
  C 533.52 396.71 533.91 414.57 533.35 424.73
  Q 531.43 459.81 505.96 485.23
  C 491.87 499.31 476.15 507.10 457.75 513.80
  Q 432.81 522.87 410.75 529.43
  Q 397.76 533.30 383.99 533.94
  Q 383.27 533.98 364.01 534.01
  Q 334.31 534.05 304.62 534.23
  Q 304.10 534.23 304.08 533.71
  L 303.32 511.82
  C 321.77 511.57 340.30 510.24 358.75 509.58
  C 383.75 508.68 407.14 505.80 431.98 497.80
  C 449.80 492.06 467.51 484.91 481.60 473.46
  C 503.68 455.52 514.46 428.55 517.53 400.78
  C 518.26 394.19 519.44 388.12 520.23 381.72
  Q 520.39 380.39 521.73 380.33
  Q 521.84 380.33 522.14 380.79
  Q 522.42 381.22 522.92 381.29
  L 533.46 382.78
  Z"
/>
<path fill="#f0fafc" d="
  M 285.55 567.87
  Q 285.71 597.84 292.15 627.37
  Q 279.94 633.38 282.48 646.74
  Q 290.30 688.02 298.08 715.99
  Q 303.22 734.46 305.20 742.75
  Q 303.92 741.47 302.87 739.89
  Q 301.70 738.15 300.53 737.11
  Q 295.75 732.84 286.27 723.73
  C 276.67 714.51 259.96 700.01 247.08 688.05
  Q 219.63 662.57 192.13 637.13
  Q 183.29 628.96 175.01 620.93
  Q 175.40 615.09 177.81 610.04
  Q 202.79 557.75 245.74 470.22
  C 252.01 457.46 268.29 461.29 269.30 475.18
  Q 272.17 514.96 274.98 554.75
  C 275.45 561.36 280.01 564.66 285.55 567.87
  Z"
/>
<path fill="#f0fafc" d="
  M 835.36 619.78
  C 833.51 623.93 830.44 625.33 827.58 627.82
  C 785.68 664.36 743.62 700.70 701.98 737.55
  Q 701.68 737.81 699.88 739.79
  Q 698.40 741.41 696.99 741.19
  Q 709.30 695.70 719.70 649.90
  Q 720.99 644.21 720.58 641.27
  C 719.50 633.59 713.07 627.97 705.51 626.67
  Q 642.12 615.73 622.51 612.81
  C 609.49 610.88 597.45 612.30 584.77 617.23
  C 536.06 636.14 487.65 655.85 439.05 675.03
  Q 424.32 680.85 416.51 683.21
  Q 410.61 685.00 398.10 687.37
  Q 389.12 670.10 381.87 652.42
  Q 380.27 648.52 378.94 644.19
  C 396.72 641.61 408.31 638.94 424.96 632.90
  Q 495.33 607.36 564.69 579.18
  Q 581.65 572.29 598.81 565.90
  Q 622.16 557.19 646.97 560.52
  Q 682.31 565.26 717.52 570.83
  C 724.87 571.99 732.71 568.99 736.18 562.22
  Q 737.32 560.00 738.00 555.07
  Q 743.22 517.20 748.70 479.37
  Q 749.47 474.07 750.37 472.28
  C 753.12 466.83 760.11 465.50 765.20 468.80
  Q 768.17 470.72 770.67 476.34
  C 791.21 522.57 812.64 568.36 833.59 614.40
  C 834.35 616.06 834.79 618.01 835.36 619.78
  Z"
/>
<path fill="#e05356" d="
  M 658.95 479.07
  Q 654.21 494.95 652.85 500.76
  Q 650.54 510.55 648.56 526.33
  C 631.46 525.28 615.73 526.06 599.48 531.91
  Q 599.03 532.07 598.70 532.04
  A 0.54 0.54 0.0 0 1 598.36 531.14
  C 610.51 517.90 618.86 498.13 623.53 481.05
  A 1.25 1.23 -85.9 0 1 624.55 480.15
  Q 641.29 477.81 658.95 479.07
  Z"
/>
<path fill="#ff6b6a" d="
  M 658.95 479.07
  Q 687.94 481.72 715.03 491.82
  Q 715.08 493.26 715.00 494.53
  Q 714.93 495.75 714.36 497.13
  Q 709.99 507.72 707.84 518.95
  Q 707.82 519.06 706.20 525.41
  Q 704.95 530.35 706.10 535.25
  Q 685.37 531.77 664.25 528.06
  Q 657.17 526.82 648.56 526.33
  Q 650.54 510.55 652.85 500.76
  Q 654.21 494.95 658.95 479.07
  Z"
/>
<path fill="#e05356" d="
  M 715.03 491.82
  Q 716.23 492.11 716.85 492.56
  Q 717.35 492.93 717.23 493.54
  L 709.24 535.46
  Q 709.14 536.00 708.67 535.88
  L 706.10 535.25
  Q 704.95 530.35 706.20 525.41
  Q 707.82 519.06 707.84 518.95
  Q 709.99 507.72 714.36 497.13
  Q 714.93 495.75 715.00 494.53
  Q 715.08 493.26 715.03 491.82
  Z"
/>
<path fill="#abcfdd" d="
  M 835.36 619.78
  C 836.76 626.54 837.18 633.55 832.05 638.58
  C 794.60 675.37 757.61 712.62 720.36 749.61
  C 714.47 755.46 705.59 758.77 699.55 750.99
  Q 696.60 747.18 696.99 741.19
  Q 698.40 741.41 699.88 739.79
  Q 701.68 737.81 701.98 737.55
  C 743.62 700.70 785.68 664.36 827.58 627.82
  C 830.44 625.33 833.51 623.93 835.36 619.78
  Z"
/>
<path fill="#abcfdd" d="
  M 175.01 620.93
  Q 183.29 628.96 192.13 637.13
  Q 219.63 662.57 247.08 688.05
  C 259.96 700.01 276.67 714.51 286.27 723.73
  Q 295.75 732.84 300.53 737.11
  Q 301.70 738.15 302.87 739.89
  Q 303.92 741.47 305.20 742.75
  Q 305.63 750.72 298.74 753.75
  Q 291.94 756.74 286.58 751.17
  Q 232.61 695.00 179.35 638.16
  Q 175.94 634.52 175.24 630.25
  Q 174.66 626.64 175.01 620.93
  Z"
/>
<path fill="#e05356" d="
  M 378.94 644.19
  Q 380.27 648.52 381.87 652.42
  Q 389.12 670.10 398.10 687.37
  Q 360.58 692.50 322.83 688.73
  Q 322.41 688.69 322.33 688.28
  L 316.34 656.63
  Q 316.22 656.04 316.82 655.92
  L 378.94 644.19
  Z"
/>
<path fill="#7dbfd9" d="
  M 620.12 645.96
  C 642.35 649.15 664.57 653.31 686.61 657.48
  Q 687.53 657.65 687.30 658.55
  L 675.47 704.89
  A 0.37 0.37 0.0 0 1 674.92 705.12
  C 638.81 684.61 594.66 695.57 559.14 710.29
  Q 530.99 721.95 502.92 733.81
  C 487.07 740.50 473.34 745.82 458.07 749.65
  C 419.85 759.23 378.45 752.82 345.05 732.23
  Q 338.35 728.10 332.23 721.99
  Q 331.57 721.34 332.46 721.59
  C 333.92 722.01 335.17 722.35 336.59 722.51
  C 368.09 726.04 403.37 723.48 433.68 712.91
  Q 440.46 710.54 466.45 700.32
  C 509.97 683.22 553.57 666.24 596.74 648.26
  Q 606.85 644.05 620.12 645.96
  Z"
/>
<ellipse fill="#7dbfd9" cx="0.00" cy="0.00" transform="translate(523.11,802.29) rotate(54.7)" rx="14.73" ry="14.43"/>
</svg>
